<?xml version="1.0" encoding="utf-8"?>
<!-- Generator: Adobe Illustrator 23.0.0, SVG Export Plug-In . SVG Version: 6.00 Build 0)  -->
<svg version="1.1" id="Layer_1" xmlns="http://www.w3.org/2000/svg" xmlns:xlink="http://www.w3.org/1999/xlink" x="0px" y="0px"
	 viewBox="0 0 149 17" style="enable-background:new 0 0 149 17;" xml:space="preserve">
<style type="text/css">
	.st0{display:none;}
	.st1{display:inline;}
	.st2{fill:#ECF0F1;}
	.st3{fill:none;}
</style>
<title>LOGOBAKERY</title>
<desc>Created with Sketch.</desc>
<g id="Page-1" class="st0">
	<g id="Navbar-1" transform="translate(-112.000000, -30.000000)" class="st1">
		<g id="Header" transform="translate(112.000000, 20.000000)">
			<path id="LOGOBAKERY" class="st2" d="M1,26c-0.1,0-0.3-0.1-0.4-0.2s-0.2-0.2-0.2-0.4V11.1c0-0.2,0.1-0.3,0.2-0.4
				c0.1-0.1,0.2-0.2,0.4-0.2h3.1c0.2,0,0.3,0.1,0.4,0.2c0.1,0.1,0.2,0.2,0.2,0.4v11.4h6.6c0.2,0,0.3,0.1,0.4,0.2s0.2,0.2,0.2,0.4
				v2.3c0,0.2-0.1,0.3-0.2,0.4c-0.1,0.1-0.2,0.2-0.4,0.2H1z M19.9,26.2c-2.1,0-3.7-0.5-4.9-1.5s-1.8-2.5-1.9-4.5c0-0.4,0-1,0-1.9
				c0-0.9,0-1.5,0-1.9c0.1-1.9,0.7-3.4,1.9-4.5s2.9-1.6,4.9-1.6c2,0,3.7,0.5,4.9,1.6s1.9,2.5,1.9,4.5c0,0.9,0,1.5,0,1.9
				c0,0.4,0,1.1,0,1.9c-0.1,2-0.7,3.5-1.9,4.5S22,26.2,19.9,26.2z M19.9,22.9c0.8,0,1.4-0.2,1.8-0.7c0.5-0.5,0.7-1.2,0.7-2.1
				c0-0.9,0-1.5,0-1.8s0-1,0-1.8c0-1-0.3-1.7-0.7-2.1c-0.5-0.5-1.1-0.7-1.8-0.7c-0.8,0-1.4,0.2-1.8,0.7c-0.5,0.5-0.7,1.2-0.7,2.1
				c0,0.4,0,1,0,1.8c0,0.8,0,1.4,0,1.8c0,1,0.3,1.7,0.7,2.1C18.5,22.7,19.1,22.9,19.9,22.9z M35.7,26.2c-2.1,0-3.8-0.5-5-1.6
				c-1.2-1-1.8-2.5-1.9-4.4c0-0.4,0-1.1,0-2c0-0.9,0-1.6,0-2c0.1-1.8,0.7-3.3,1.9-4.3c1.2-1,2.9-1.5,5-1.5c1.4,0,2.6,0.2,3.7,0.7
				s1.8,1,2.4,1.7s0.8,1.4,0.9,2.2c0,0.1,0,0.2-0.1,0.3c-0.1,0.1-0.2,0.1-0.3,0.1h-3.4c-0.1,0-0.3,0-0.3-0.1
				c-0.1-0.1-0.2-0.1-0.2-0.2c-0.2-0.4-0.5-0.8-0.8-1.1s-0.9-0.4-1.6-0.4c-1.7,0-2.6,0.9-2.6,2.6c0,0.4,0,1,0,1.9c0,0.9,0,1.5,0,1.9
				c0.1,1.9,1,2.8,2.7,2.8c0.9,0,1.5-0.2,2-0.6c0.5-0.4,0.7-1.1,0.7-1.9v-0.4h-2c-0.2,0-0.3-0.1-0.4-0.2S36,19.5,36,19.4v-1.7
				c0-0.2,0.1-0.3,0.2-0.4s0.2-0.2,0.4-0.2h5.6c0.2,0,0.3,0.1,0.4,0.2s0.2,0.2,0.2,0.4v2.6c0,1.2-0.3,2.3-0.9,3.2
				c-0.6,0.9-1.4,1.6-2.5,2.1C38.3,26,37.1,26.2,35.7,26.2z M51.5,26.2c-2.1,0-3.7-0.5-4.9-1.5c-1.2-1-1.8-2.5-1.9-4.5
				c0-0.4,0-1,0-1.9c0-0.9,0-1.5,0-1.9c0.1-1.9,0.7-3.4,1.9-4.5c1.2-1,2.9-1.6,4.9-1.6c2,0,3.7,0.5,4.9,1.6s1.9,2.5,1.9,4.5
				c0,0.9,0,1.5,0,1.9c0,0.4,0,1.1,0,1.9c-0.1,2-0.7,3.5-1.9,4.5S53.6,26.2,51.5,26.2z M51.5,22.9c0.8,0,1.4-0.2,1.8-0.7
				c0.5-0.5,0.7-1.2,0.7-2.1c0-0.9,0-1.5,0-1.8s0-1,0-1.8c0-1-0.3-1.7-0.7-2.1c-0.5-0.5-1.1-0.7-1.8-0.7c-0.8,0-1.4,0.2-1.8,0.7
				c-0.5,0.5-0.7,1.2-0.7,2.1c0,0.4,0,1,0,1.8c0,0.8,0,1.4,0,1.8c0,1,0.3,1.7,0.7,2.1C50.1,22.7,50.8,22.9,51.5,22.9z M61.4,26
				c-0.1,0-0.3-0.1-0.4-0.2s-0.2-0.2-0.2-0.4V11.2c0-0.2,0.1-0.3,0.2-0.4c0.1-0.1,0.2-0.2,0.4-0.2h6.8c1.9,0,3.2,0.4,4.2,1.1
				s1.4,1.8,1.4,3.3c0,0.7-0.2,1.3-0.6,1.8s-0.8,0.9-1.2,1.1c0.6,0.3,1.1,0.7,1.5,1.3s0.6,1.3,0.6,2.1c0,1.5-0.5,2.6-1.5,3.5
				c-1,0.8-2.4,1.2-4.2,1.2H61.4z M67.8,16.7c0.5,0,1-0.1,1.3-0.4c0.3-0.3,0.4-0.7,0.4-1.1c0-0.5-0.1-0.8-0.4-1.1
				c-0.3-0.3-0.7-0.4-1.3-0.4H65v3.1H67.8z M68,23c0.6,0,1-0.2,1.3-0.5c0.3-0.3,0.5-0.7,0.5-1.2c0-0.5-0.2-0.9-0.5-1.2
				c-0.3-0.3-0.8-0.5-1.3-0.5H65V23H68z M75.4,26c-0.1,0-0.2,0-0.3-0.1c-0.1-0.1-0.1-0.2-0.1-0.3c0-0.1,0-0.2,0-0.2L80,11.2
				c0.1-0.4,0.4-0.6,0.9-0.6h3.4c0.4,0,0.7,0.2,0.9,0.6l5.1,14.1c0,0,0,0.1,0,0.2c0,0.1,0,0.2-0.1,0.3C90.1,26,90,26,89.9,26h-2.9
				c-0.4,0-0.6-0.2-0.7-0.5l-0.8-2.1h-5.8L79,25.5c-0.1,0.3-0.4,0.5-0.7,0.5H75.4z M80.7,20.1h3.9l-2-5.6L80.7,20.1z M92.6,26
				c-0.1,0-0.3-0.1-0.4-0.2s-0.2-0.2-0.2-0.4V11.2c0-0.2,0.1-0.3,0.2-0.4c0.1-0.1,0.2-0.2,0.4-0.2h2.9c0.2,0,0.3,0.1,0.4,0.2
				c0.1,0.1,0.2,0.2,0.2,0.4V16L100,11c0.2-0.3,0.4-0.4,0.9-0.4h3.4c0.1,0,0.2,0,0.3,0.1c0.1,0.1,0.1,0.2,0.1,0.3
				c0,0.1,0,0.2-0.1,0.3L99.5,18l5.5,7.3c0.1,0.1,0.1,0.1,0.1,0.3s0,0.2-0.1,0.3c-0.1,0.1-0.2,0.1-0.3,0.1h-3.5
				c-0.2,0-0.4,0-0.6-0.1c-0.1-0.1-0.2-0.2-0.3-0.3l-4.2-5.4v5.3c0,0.1-0.1,0.3-0.2,0.4c-0.1,0.1-0.2,0.2-0.4,0.2H92.6z M107.3,26
				c-0.1,0-0.3-0.1-0.4-0.2s-0.2-0.2-0.2-0.4V11.2c0-0.2,0.1-0.3,0.2-0.4c0.1-0.1,0.2-0.2,0.4-0.2h10.4c0.2,0,0.3,0.1,0.4,0.2
				s0.2,0.2,0.2,0.4v2.2c0,0.2-0.1,0.3-0.2,0.4c-0.1,0.1-0.2,0.2-0.4,0.2h-7v2.8h6.5c0.2,0,0.3,0.1,0.4,0.2s0.2,0.2,0.2,0.4v2
				c0,0.2-0.1,0.3-0.2,0.4s-0.2,0.2-0.4,0.2h-6.5v2.9h7.1c0.2,0,0.3,0.1,0.4,0.2s0.2,0.2,0.2,0.4v2.2c0,0.2-0.1,0.3-0.2,0.4
				c-0.1,0.1-0.2,0.2-0.4,0.2H107.3z M121.4,26c-0.1,0-0.3-0.1-0.4-0.2s-0.2-0.2-0.2-0.4V11.2c0-0.2,0.1-0.3,0.2-0.4
				c0.1-0.1,0.2-0.2,0.4-0.2h6.1c1.9,0,3.5,0.4,4.5,1.3c1.1,0.9,1.6,2.1,1.6,3.7c0,1-0.2,1.9-0.7,2.6s-1.1,1.3-2,1.7l3,5.4
				c0,0.1,0.1,0.2,0.1,0.2c0,0.1,0,0.2-0.1,0.3c-0.1,0.1-0.2,0.1-0.3,0.1h-3.1c-0.4,0-0.7-0.2-0.9-0.6l-2.4-4.8H125v4.8
				c0,0.2-0.1,0.3-0.2,0.4c-0.1,0.1-0.2,0.2-0.4,0.2H121.4z M127.5,17.4c0.6,0,1.1-0.2,1.4-0.5c0.3-0.3,0.5-0.8,0.5-1.3
				c0-0.6-0.2-1-0.5-1.3c-0.3-0.3-0.8-0.5-1.4-0.5H125v3.6H127.5z M140.1,26c-0.1,0-0.3-0.1-0.4-0.2s-0.2-0.2-0.2-0.4v-4.7l-5.1-9.5
				c0-0.1-0.1-0.2-0.1-0.2c0-0.1,0-0.2,0.1-0.3s0.2-0.1,0.3-0.1h2.9c0.2,0,0.4,0.1,0.5,0.2c0.1,0.1,0.2,0.2,0.3,0.3l3.1,5.5l3.1-5.5
				c0.1-0.1,0.2-0.2,0.3-0.3c0.1-0.1,0.3-0.2,0.5-0.2h2.9c0.1,0,0.2,0,0.3,0.1s0.1,0.2,0.1,0.3c0,0.1,0,0.2-0.1,0.2l-5.1,9.5v4.7
				c0,0.2-0.1,0.3-0.2,0.4c-0.1,0.1-0.2,0.2-0.4,0.2H140.1z"/>
		</g>
	</g>
</g>
<g>
	<path class="st2" d="M33.1,6.7h3.1c0.1,0,0.2-0.1,0.2-0.2v-1c0-0.1-0.1-0.2-0.2-0.2h-1.5c-0.1,0-0.2-0.1-0.2-0.2v-3
		c0-0.1-0.1-0.2-0.2-0.2L33,2.4c-0.1,0-0.1,0.1-0.1,0.2v3.9C32.9,6.6,33,6.7,33.1,6.7z"/>
	<path class="st2" d="M36.9,1.6H38c0.1,0,0.2-0.1,0.2-0.2V0.5h-0.1L36.9,1V1.6z"/>
	<path class="st2" d="M37,6.7h1.1c0.1,0,0.1-0.1,0.1-0.1V2.2c0-0.1-0.1-0.1-0.1-0.1H37c-0.1,0-0.1,0.1-0.1,0.1v4.4
		C36.9,6.6,36.9,6.7,37,6.7z"/>
	<path class="st2" d="M39.3,2h-0.5v1.1h0.5v3.4c0,0.1,0.1,0.2,0.2,0.2h1c0.1,0,0.2-0.1,0.2-0.2V3.1h0.6V2h-0.6V1.9
		c0-0.4,0.3-0.4,0.4-0.4h0.2V0.4h-0.2c-0.7,0-1.8,0.1-1.8,1.4V2z"/>
	<path class="st2" d="M41.6,4.4c0,0.1,0,0.1,0,0.2c0-0.1,0-0.3,0-0.4C41.7,4.3,41.6,4.3,41.6,4.4z"/>
	<path class="st2" d="M40.4,8.6h-1.7c-0.1,0-0.2,0.1-0.2,0.2v7.3c0,0.1,0.1,0.2,0.2,0.2h1c0.4-0.4,0.5-0.5,0.9-0.9V8.9
		C40.6,8.7,40.5,8.6,40.4,8.6z"/>
	<path class="st2" d="M43.9,13.2c0-0.4,0-1.2,1.1-1.2c1,0,1,0.8,1,1.2v2.9c0,0.1,0.1,0.2,0.3,0.2c0.5-0.2,1-0.4,1.5-0.6
		c0.1,0,0.1-0.1,0.1-0.2v-2.7c0-1.1-0.4-1.6-0.7-1.9c-0.3-0.3-1-0.5-1.6-0.5c-1.1,0-1.5,0.5-1.7,0.8h0v-0.6h-1.6
		c-0.1,0-0.2,0.1-0.2,0.2v5.3c0,0.1,0.1,0.2,0.3,0.2c0.5-0.2,1-0.4,1.5-0.6c0.1,0,0.1-0.1,0.1-0.2V13.2z"/>
	<path class="st2" d="M54.6,3.6c1.5,0,2.3,1,2.7,1.8c0.1,0.2,0.2,0.2,0.4,0.2l2.3,0c0.3,0,0.5-0.3,0.4-0.6c-0.4-1.3-1.6-3-3.6-3.7
		c-0.1,0-0.2,0-0.3,0c-1,0.4-6.1,2.2-7,2.6c-0.1,0-0.2,0.1-0.2,0.2C48.8,5.1,48.5,6,48.5,7c0,3.2,2.5,6.1,6.1,6.1
		c2.6,0,4.9-1.6,5.7-4c0.1-0.3-0.1-0.6-0.4-0.6l-2.2,0c-0.2,0-0.3,0.1-0.4,0.2c-0.3,0.6-1.1,1.7-2.7,1.7c-1.9,0-3.1-1.7-3.1-3.5
		C51.5,5.4,52.6,3.6,54.6,3.6z"/>
	<path class="st2" d="M66.3,3.8c-3.2,0-4.7,2.5-4.7,4.6c0,2.1,1.5,4.6,4.7,4.6c3.2,0,4.7-2.5,4.7-4.6C71,6.3,69.5,3.8,66.3,3.8z
		 M66.3,10.7c-1.1,0-2.1-0.9-2.1-2.2c0-1.3,1-2.2,2.1-2.2c1.1,0,2.1,0.9,2.1,2.2C68.4,9.8,67.4,10.7,66.3,10.7z"/>
	<path class="st2" d="M72.8,12.9h1.9c0.2,0,0.3-0.2,0.3-0.3v-11c0-0.2-0.2-0.3-0.3-0.3h-1.9c-0.2,0-0.3,0.2-0.3,0.3v11
		C72.5,12.7,72.6,12.9,72.8,12.9z"/>
	<path class="st2" d="M77.3,12.9h1.9c0.2,0,0.4-0.2,0.4-0.4V1.6c0-0.2-0.2-0.4-0.4-0.4h-1.9c-0.2,0-0.4,0.2-0.4,0.4v10.9
		C77,12.7,77.1,12.9,77.3,12.9z"/>
	<path class="st2" d="M88.1,12.4c0.6-0.4,1.2-1.1,1.6-1.9c0.1-0.2,0-0.4-0.2-0.4l-2,0c-0.2,0-0.3,0.1-0.4,0.2
		c-0.3,0.4-0.7,0.6-1.4,0.6c-0.9,0-1.7-0.5-2-1.3c-0.1-0.2,0.1-0.3,0.2-0.3l5.7,0c0.3,0,0.6-0.3,0.6-0.6c0,0,0,0,0,0
		c0-2.5-1.9-4.7-4.4-4.8C83,3.7,81,6,81,8.5c0,2.6,2.1,4.6,4.6,4.6C86.5,13.1,87.4,12.9,88.1,12.4z M85.6,6c1.1,0,1.6,0.6,1.9,1.2
		c0.1,0.2,0,0.3-0.2,0.3h-3.4c-0.1,0-0.2-0.1-0.2-0.3C83.9,6.7,84.5,6,85.6,6z"/>
	<path class="st2" d="M100.7,11.8V4.1h-2.6v0.8h0c-0.5-0.8-1.4-1.1-2.4-1.1c-2.3,0-4.4,1.7-4.4,4.7c0,2.8,2,4.6,4.4,4.6
		c1.4,0,2.1-0.7,2.4-1.2h0v0.3c0,2.3-1.8,2.4-2.1,2.4c-0.2,0-1.1,0-1.5-0.9h-3c0.1,1,1,2.5,3.1,2.9c2-0.8,3.9-1.6,5.9-2.3
		C100.6,13.6,100.7,12.9,100.7,11.8z M96,10.7c-1.1,0-2.1-0.9-2.1-2.3c0-1.3,1-2.2,2.1-2.2c1.2,0,2.1,0.9,2.1,2.3
		C98.1,9.8,97.2,10.7,96,10.7z"/>
	<path class="st2" d="M108.6,10.1c-0.2,0-0.4,0.1-0.5,0.2c-0.3,0.4-0.7,0.6-1.4,0.6c-1,0-1.8-0.5-2-1.4c0-0.1,0.1-0.2,0.2-0.2h5.9
		c0.3,0,0.5-0.2,0.5-0.4c0-0.1,0-0.2,0-0.3c0-2.5-1.9-4.6-4.4-4.7c-2.8-0.1-4.8,2.2-4.8,4.7c0,1.6,0.8,3,2.1,3.8
		c0.3,0.2,0.6,0.2,0.9,0.1c2-0.8,3.9-1.6,5.9-2.3H108.6z M106.7,6c1.1,0,1.6,0.6,1.9,1.2c0.1,0.2,0,0.3-0.2,0.3H105
		c-0.1,0-0.2-0.1-0.2-0.3C105,6.7,105.5,6,106.7,6z"/>
	<g>
		<g>
			<path class="st3" d="M44.1,3.1c-0.7,0-1,0.5-1.1,0.8h2.1C45.1,3.6,44.8,3.1,44.1,3.1z"/>
			<path class="st2" d="M44.4,1.9c-1.5-0.2-2.6,0.9-2.8,2.3c0,0.1,0,0.3,0,0.4c0.1,0.8,0.5,1.5,1.1,1.9c0.4,0.3,0.9,0.4,1.4,0.4
				c0.5,0,0.9-0.1,1.3-0.4c0.3-0.2,0.6-0.5,0.8-0.9c0.1-0.1,0-0.3-0.2-0.3h-0.9c-0.1,0-0.2,0-0.2,0.1c-0.2,0.2-0.4,0.3-0.8,0.3
				c-0.5,0-1-0.3-1.1-0.9h3.3c0.1,0,0.2-0.1,0.2-0.2c0,0,0-0.1,0-0.1C46.6,3.2,45.7,2.1,44.4,1.9z M43,3.9c0.1-0.3,0.3-0.8,1.1-0.8
				s1,0.5,1.1,0.8H43z"/>
		</g>
	</g>
</g>
</svg>
